<?xml version="1.0" encoding="UTF-8" standalone="no"?>
<svg
   version="1.1"
   width="293.335pt"
   height="96.82999pt"
   viewBox="0 0 293.335 96.82999"
   id="svg1854"
   sodipodi:docname="logo-dark.svg"
   inkscape:version="1.2.1 (9c6d41e410, 2022-07-14, custom)"
   xmlns:inkscape="http://www.inkscape.org/namespaces/inkscape"
   xmlns:sodipodi="http://sodipodi.sourceforge.net/DTD/sodipodi-0.dtd"
   xmlns:xlink="http://www.w3.org/1999/xlink"
   xmlns="http://www.w3.org/2000/svg"
   xmlns:svg="http://www.w3.org/2000/svg">
  <defs
     id="defs1858" />
  <sodipodi:namedview
     id="namedview1856"
     pagecolor="#ffffff"
     bordercolor="#000000"
     borderopacity="0.25"
     inkscape:showpageshadow="2"
     inkscape:pageopacity="0.0"
     inkscape:pagecheckerboard="0"
     inkscape:deskcolor="#d1d1d1"
     inkscape:document-units="pt"
     showgrid="false"
     inkscape:zoom="2.303261"
     inkscape:cx="228.15478"
     inkscape:cy="104.85134"
     inkscape:window-width="1346"
     inkscape:window-height="721"
     inkscape:window-x="9"
     inkscape:window-y="36"
     inkscape:window-maximized="1"
     inkscape:current-layer="g1850"
     showguides="false" />
  <g
     enable-background="new"
     id="g1852">
    <clipPath
       id="cp0">
      <path
         transform="matrix(.1,0,0,-.1,-149.94,454.68)"
         d="M 0 7.0625 L 5950 7.0625 L 5950 8412.933 L 0 8412.933 Z "
         id="path1721" />
    </clipPath>
    <g
       clip-path="url(#cp0)"
       id="g1850"
       transform="translate(0,4.5)">
      <path
         transform="matrix(0.1,0,0,-0.1,-149.94,454.68)"
         d="M 0,7.0625 H 5942.77 V 8411.832 H 0 Z"
         id="path1724"
         style="fill:none" />
      <path
         d="m 1511.98,3649.94 v 842.6 c 0,23.44 19,42.45 42.45,42.45 h 2824.32 c 23.45,0 42.45,-19.01 42.45,-42.45 v -842.6 c 0,-23.44 -19,-42.45 -42.45,-42.45 H 1554.43 c -23.45,0 -42.45,19.01 -42.45,42.45"
         fill="#ffffff"
         id="path1726"
         transform="matrix(0.1,0,0,-0.1,-149.94,454.68)"
         style="fill:none" />
      <path
         d="M 2.673,86.686 V 2.426 c 0,-1.563 1.267,-2.83 2.83,-2.83 h 282.432 c 1.563,0 2.83,1.267 2.83,2.83 v 84.26 c 0,1.563 -1.267,2.83 -2.83,2.83 H 5.503 c -1.563,0 -2.83,-1.267 -2.83,-2.83"
         id="path1728"
         style="fill:none;stroke:#f3f3f3;stroke-width:1;stroke-dasharray:none;stroke-opacity:1" />
      <symbol
         id="font_1_2">
        <path
           d="M 0.62700006,0.356 C 0.62700006,0.561 0.48000003,0.71500006 0.314,0.71500006 0.14400001,0.71500006 0,0.559 0,0.356 0,0.15300001 0.146,0 0.31300003,0 0.48400004,0 0.62700006,0.156 0.62700006,0.356 M 0.551,0.36900003 C 0.551,0.128 0.42400003,0.018 0.314,0.018 0.2,0.018 0.07600001,0.132 0.07600001,0.36900003 0.07600001,0.605 0.21200001,0.697 0.31300003,0.697 0.41900004,0.697 0.551,0.602 0.551,0.36900003 Z"
           id="path1730" />
      </symbol>
      <symbol
         id="font_1_3">
        <path
           d="m 0.418,0.19700001 c 0,0.052 -0.019,0.092 -0.03,0.10999999 -0.042,0.064 -0.087,0.076 -0.13499997,0.088 -0.007,0.003 -0.009,0.003 -0.065,0.017 -0.054,0.014 -0.077,0.021 -0.10200001,0.048 -0.028,0.031 -0.038,0.063 -0.038,0.095 0,0.065 0.05200001,0.136 0.137,0.136 0.106,0 0.17200003,-0.075 0.187,-0.19999996 0.003,-0.018 0.004,-0.019 0.011,-0.019 0.009,0 0.009,0.003 0.009,0.02 v 0.203 c 0,0.018 -0.001,0.019 -0.007,0.019 -0.006,0 -0.008,-0.004 -0.012,-0.0129999 L 0.34300003,0.635 C 0.305,0.69 0.24700001,0.71500006 0.184,0.71500006 0.082,0.71500006 0,0.634 0,0.532 0,0.501 0.007,0.457 0.041,0.41500003 c 0.037,-0.046 0.07200001,-0.054 0.152,-0.075 0.03,-0.008 0.08,-0.021 0.09,-0.025 C 0.34,0.291 0.37,0.231 0.37,0.17500001 0.37,0.10300001 0.319,0.026 0.23200003,0.026 0.125,0.026 0.025,0.086 0.018,0.22600001 c -10e-4,0.016 -0.002,0.017 -0.009,0.017 -0.008000002,0 -0.009,-0.001 -0.009,-0.021 V 0.02 C 0,0.002 9.999983e-4,0.001 0.007,0.001 0.014,0.001 0.016,0.006 0.03,0.037 0.031,0.04 0.031,0.042 0.05,0.08000001 0.10000001,0.014 0.184,0 0.23200003,0 0.34100003,0 0.418,0.09100001 0.418,0.19700001 Z"
           id="path1733" />
      </symbol>
      <symbol
         id="font_1_1">
        <path
           d="m 0.59000006,0.657 v 0.026 c -0.023,-0.002 -0.065,-0.002 -0.0900001,-0.002 -0.025,0 -0.067,0 -0.09,0.002 V 0.657 c 0.08,0 0.08,-0.047 0.08,-0.0719999 V 0.12200001 L 0.15400002,0.671 c -0.007,0.0110001 -0.008,0.012 -0.027,0.012 H 0 V 0.657 h 0.019 c 0.04000001,0 0.05800001,-0.005 0.06100001,-0.006 V 0.09800001 C 0.08000001,0.07300001 0.08000001,0.026 0,0.026 V 0 c 0.023,0.002 0.065,0.002 0.09,0.002 0.02500001,0 0.067,0 0.09,-0.002 V 0.026 C 0.1,0.026 0.1,0.07300001 0.1,0.09800001 V 0.637 C 0.107,0.631 0.107,0.629 0.114,0.619 L 0.485,0.012 C 0.49200005,0 0.495,0 0.5,0 0.5100001,0 0.5100001,0.003 0.5100001,0.022 v 0.56300006 c 0,0.0249999 0,0.0719999 0.08,0.0719999 z"
           id="path1736" />
      </symbol>
      <use
         xlink:href="#font_1_2"
         transform="matrix(63.6538,0,0,-63.6538,70.20208,58.516447)"
         fill="#ffffff"
         id="use1739"
         style="fill:#f0f0f0;fill-opacity:1" />
      <use
         xlink:href="#font_1_3"
         transform="matrix(63.6538,0,0,-63.6538,116.03715,58.516447)"
         fill="#ffffff"
         id="use1741"
         style="fill:#f0f0f0;fill-opacity:1" />
      <use
         xlink:href="#font_1_3"
         transform="matrix(63.6538,0,0,-63.6538,148.56684,58.516447)"
         fill="#ffffff"
         id="use1743"
         style="fill:#f0f0f0;fill-opacity:1" />
      <use
         xlink:href="#font_1_1"
         transform="matrix(63.6538,0,0,-63.6538,181.4148,57.497987)"
         fill="#ffffff"
         id="use1745"
         style="fill:#f0f0f0;fill-opacity:1" />
      <symbol
         id="font_2_10">
        <path
           d="m 0.586,0.47400005 0.03,0.18100001 c 0.002,0.01 0.002,0.012 0.002,0.012 0,0.011 -0.007,0.011 -0.0240001,0.011 H 0.09199999 c -0.02099999,0 -0.02299998,0 -0.02799999,-0.016 L 0.00299999,0.47800002 C 0.002,0.47500003 0,0.46800003 0,0.46500004 c 0,-0.01 0.01000001,-0.01 0.013,-0.01 0.01,0 0.011,0.001 0.01900001,0.021 C 0.082,0.625 0.10400002,0.64900007 0.24000003,0.64900007 h 0.034 c 0.023,0 0.023,-0.004 0.023,-0.0110001 0,-0.006 -0.003,-0.019 -0.004,-0.0209999 L 0.158,0.07600001 C 0.149,0.039 0.14100002,0.029 0.056,0.029 H 0.044 c -0.01800001,0 -0.027,0 -0.027,-0.019 C 0.017,0 0.02599999,0 0.034,0 L 0.17600002,0.002 0.32100005,0 c 0.01,0 0.021,0 0.021,0.018 0,0.011 -0.007,0.011 -0.024,0.011 H 0.306 C 0.289,0.029 0.273,0.03 0.257,0.032 0.238,0.034 0.228,0.035 0.228,0.051 c 0,0.005 0,0.007 0.002,0.017 l 0.136,0.54400007 c 0.007,0.028 0.013,0.033 0.021,0.0349999 0.007,0.002 0.036,0.002 0.054,0.002 0.087,1e-7 0.128,-0.006 0.128,-0.075 0,-0.03 -0.008,-0.081 -0.011,-0.097 L 0.556,0.466 c 0,-0.011 0.01,-0.011 0.014,-0.011 0.012,0 0.013,0.003 0.016,0.019 z"
           id="path1747" />
      </symbol>
      <symbol
         id="font_2_d">
        <path
           d="m 0.449,0.15300001 c 0,0.009 -0.009,0.009 -0.0129999,0.009 -0.012,0 -0.0130001,-0.003 -0.017,-0.018 -0.009,-0.034 -0.036,-0.12400001 -0.092,-0.12400001 -0.015,0 -0.023,0.007 -0.023,0.03000001 0,0.02399999 0.011,0.055 0.019,0.07499999 0.026,0.073 0.06,0.166 0.06,0.224 0,0.053 -0.023,0.102 -0.1,0.102 -0.064,0 -0.10600001,-0.037 -0.13400003,-0.071 l 0.075,0.301 c 0.002,0.006 0.003,0.0100001 0.003,0.013 0,0.009 -0.007,0.01 -0.023,0.009 L 0.104,0.694 C 0.09,0.693 0.081,0.692 0.081,0.674 c 0,-0.01 0.008,-0.01 0.022,-0.01 0.05,0 0.05,-0.009 0.05,-0.019 C 0.153,0.641 0.151,0.631 0.15,0.627 L 0.004,0.043 C 0.001,0.03 0,0.028 0,0.025 0,0.012 0.009,0 0.026,0 0.05400001,0 0.06,0.026 0.06200001,0.033 l 0.062,0.24800003 c 0.006,0.023 0.06,0.15 0.15599999,0.15 0.046,0 0.046,-0.05 0.046,-0.067 0,-0.062 -0.044,-0.18199999 -0.061,-0.231 C 0.256,0.108 0.252,0.099 0.252,0.078 0.252,0.03 0.28300003,0 0.32400004,0 0.41700004,0 0.449,0.14900002 0.449,0.15300001 Z"
           id="path1750" />
      </symbol>
      <symbol
         id="font_2_a">
        <path
           d="M 0.343,0.115 C 0.343,0.122 0.335,0.13 0.329,0.13 0.326,0.13 0.325,0.129 0.317,0.12 0.264,0.04800001 0.189,0.02 0.138,0.02 c -0.066,0 -0.07500001,0.079 -0.07500001,0.11100001 0,0.044 0.007,0.072 0.01700001,0.11100001 h 0.036 c 0.035,0 0.223,0 0.223,0.12599998 0,0.045 -0.037,0.083 -0.096,0.083 C 0.13900002,0.451 0,0.349 0,0.17300001 0,0.07200001 0.052,0 0.13700001,0 0.26100005,0 0.343,0.101 0.343,0.115 M 0.305,0.36900003 C 0.305,0.262 0.13900002,0.262 0.10700001,0.262 H 0.086 c 0.04,0.159 0.13800002,0.16900003 0.156,0.16900003 0.04,0 0.063,-0.028 0.063,-0.062 z"
           id="path1753" />
      </symbol>
      <symbol
         id="font_2_b">
        <path
           d="m 0.62700006,0.467 c 0,0.14500007 -0.0850001,0.2580001 -0.22300007,0.2580001 C 0.203,0.7250001 0,0.48700003 0,0.256 0,0.112 0.086,0 0.22399999,0 0.422,0 0.62700006,0.23200001 0.62700006,0.467 M 0.549,0.50600007 C 0.549,0.31100003 0.41000004,0.023 0.22900002,0.023 0.14,0.023 0.082,0.10500001 0.082,0.22700002 c 0,0.061 0.02300001,0.22500001 0.104,0.34000004 0.067,0.094 0.148,0.13600003 0.212,0.13600003 0.083,0 0.151,-0.066 0.151,-0.19700002 z"
           id="path1756" />
      </symbol>
      <symbol
         id="font_2_3">
        <path
           d="M 0.485,0.483 C 0.485,0.5700001 0.439,0.635 0.37,0.635 0.307,0.635 0.25500003,0.571 0.25,0.564 0.241,0.6130001 0.205,0.635 0.171,0.635 0.148,0.635 0.122,0.625 0.101,0.582 0.082,0.545 0.06900001,0.483 0.06900001,0.483 c 0,-0.008 0.005,-0.01 0.014,-0.01 0.011,0 0.012,9.9997e-4 0.01799999,0.024 0.015,0.059 0.034,0.118 0.068,0.118 0.026,0 0.026,-0.029 0.026,-0.041 0,-0.0189999 -0.004,-0.0399999 -0.008,-0.0549999 L 0.07400001,0.066 C 0.06600001,0.035 0.05900001,0.029 0.021,0.029 0.01,0.029 0,0.029 0,0.00999999 0,0.002 0.007,0 0.012,0 0.038,0 0.067,0.002 0.09400001,0.002 0.12400001,0.002 0.156,0 0.18500002,0 c 0.006,0 0.018,0 0.018,0.01799999 0,0.01100001 -0.006,0.01100001 -0.024,0.01100001 -0.022,0 -0.048,0 -0.048,0.015 0,0.009 0.001,0.016 0.048,0.2 0.01,-0.025 0.035,-0.06 0.082,-0.06 0.109,0 0.224,0.154 0.224,0.299 M 0.36800004,0.30200003 c -0.035,-0.07 -0.076,-0.098 -0.10700004,-0.098 -0.062,0 -0.068,0.095 -0.068,0.095 0,0.003 9.9998e-4,0.006 0.003,0.014 L 0.243,0.50200006 C 0.25100003,0.533 0.312,0.615 0.367,0.615 c 0.036,0 0.055,-0.037 0.055,-0.0899999 0,-0.0560001 -0.034,-0.18100006 -0.054,-0.22300007 z"
           id="path1759" />
      </symbol>
      <symbol
         id="font_2_1">
        <path
           d="m 0.49,0.15300001 c 0,0.009 -0.009,0.009 -0.013,0.009 -0.012,0 -0.0129999,-0.003 -0.0169999,-0.018 -0.009,-0.034 -0.036,-0.12400001 -0.092,-0.12400001 -0.015,0 -0.023,0.007 -0.023,0.03000001 0,0.02399999 0.011,0.055 0.019,0.07499999 0.026,0.073 0.06,0.166 0.06,0.224 0,0.053 -0.023,0.102 -0.10000003,0.102 -0.062,0 -0.109,-0.036 -0.14199999,-0.081 -0.003,0.045 -0.034,0.081 -0.08,0.081 -0.023,0 -0.049,-0.01 -0.07,-0.053 C 0.013,0.361 0,0.299 0,0.299 0,0.291 0.005,0.289 0.014,0.289 c 0.011,0 0.012,0.001 0.018,0.024 0.01500001,0.059 0.034,0.11800003 0.06800001,0.11800003 0.026,0 0.026,-0.029 0.026,-0.041 0,-0.019 -0.004,-0.041 -0.008,-0.055 L 0.045,0.043 C 0.041,0.029 0.041,0.028 0.041,0.024 0.041,0.012 0.049,0 0.067,0 0.09,0 0.10000001,0.018 0.104,0.035 l 0.061,0.24600003 c 0.006,0.022 0.06,0.15 0.156,0.15 0.046,0 0.046,-0.05 0.046,-0.067 0,-0.062 -0.044,-0.18199999 -0.061,-0.231 C 0.29700003,0.108 0.293,0.099 0.293,0.078 0.293,0.03 0.324,0 0.365,0 0.458,0 0.49,0.14900002 0.49,0.15300001 Z"
           id="path1762" />
      </symbol>
      <symbol
         id="font_2_f">
        <path
           d="m 0.45400004,0.25800003 c 0,0.079 -0.04,0.12400001 -0.09,0.13999997 l -0.097,0.029 c -0.032,0.009 -0.079,0.023 -0.079,0.098 0,0.086 0.079,0.17300004 0.16299997,0.17300004 0.12000006,0 0.12000006,-0.1120001 0.12000006,-0.14300001 0,-0.013 0,-0.03 -0.004,-0.0590001 -0.002,-0.006 -0.002,-0.009 -0.002,-0.009 0,-0.01 0.007,-0.01 0.014,-0.01 0.0110001,0 0.013,9.9998e-4 0.017,0.017 L 0.548,0.7020001 c 0.001,0.003 0.003,0.011 0.003,0.014 0,0.009 -0.01,0.009 -0.01,0.009 -0.003,0 -0.006,0 -0.014,-0.011 l -0.045,-0.06 c -0.037,0.071 -0.111,0.071 -0.12900001,0.071 -0.11699999,0 -0.227,-0.1160001 -0.227,-0.23600007 0,-0.022 0.002,-0.063 0.038,-0.102 0.021,-0.023 0.039,-0.028 0.108,-0.048 l 0.061,-0.018 c 0.042,-0.014 0.06,-0.053 0.06,-0.098 0,-0.091 -0.078,-0.194 -0.16900005,-0.194 -0.077,0 -0.148,0.039 -0.148,0.141 0,0.01 0.002,0.037 0.008,0.061 l 0.001,0.008 c 0,0.009 -0.008,0.009 -0.01299999,0.009 -0.01100001,0 -0.013,-0.001 -0.01700001,-0.017 L 0.003,0.023 C 0.002,0.02 0,0.012 0,0.009 0,0 0.01,0 0.01,0 0.014,0 0.015,0.001 0.025,0.013 L 0.07,0.073 C 0.09700001,0.032 0.14200002,0 0.22100002,0 0.34200005,0 0.45400004,0.128 0.45400004,0.25800003 Z"
           id="path1765" />
      </symbol>
      <symbol
         id="font_2_2">
        <path
           d="M 0.387,0.289 C 0.387,0.393 0.323,0.451 0.248,0.451 0.12600002,0.451 0,0.31 0,0.16200002 0,0.05400001 0.067,0 0.139,0 0.261,0 0.387,0.143 0.387,0.289 M 0.323,0.327 C 0.323,0.284 0.299,0.17100002 0.267,0.11600001 0.22600001,0.045 0.17500001,0.02 0.13999999,0.02 0.098,0.02 0.064,0.05600001 0.064,0.12400001 0.064,0.17000002 0.08800001,0.28 0.121,0.337 c 0.037,0.064 0.088,0.094 0.12499999,0.094 0.051,0 0.077,-0.047 0.077,-0.104 z"
           id="path1768" />
      </symbol>
      <symbol
         id="font_2_6">
        <path
           d="m 0.46500004,0.15300001 c 0,0.009 -0.009,0.009 -0.013,0.009 -0.012,0 -0.013,-0.001 -0.019,-0.024 -0.02,-0.083 -0.039,-0.11800001 -0.067,-0.11800001 -0.022,0 -0.027,0.021 -0.027,0.04 0,0.015 0.004,0.03800001 0.008,0.05300001 l 0.071,0.28399999 c 0.004,0.014 0.004,0.016 0.004,0.02 0,0.015 -0.012,0.024 -0.025,0.024 -0.028,0 -0.036,-0.025 -0.039,-0.039 L 0.286,0.11300001 c 0,0 0,-0.011 -0.002,-0.01600001 C 0.264,0.05500001 0.227,0.02 0.181,0.02 0.136,0.02 0.127,0.06500001 0.127,0.09800001 0.127,0.158 0.162,0.25300003 0.185,0.317 0.193,0.34 0.198,0.353 0.198,0.373 0.198,0.413 0.174,0.451 0.125,0.451 0.034,0.451 0,0.304 0,0.298 0,0.289 0.009,0.289 0.014,0.289 c 0.012,0 0.013,0.003 0.017,0.017 0.008,0.03 0.034,0.12500003 0.09200001,0.12500003 0.012,0 0.023,-0.005 0.023,-0.029 0,-0.025 -0.01,-0.051 -0.031,-0.109 -0.032,-0.089 -0.045,-0.13999999 -0.045,-0.179 0,-0.09 0.059,-0.114 0.10799999,-0.114 0.042,0 0.077,0.02 0.109,0.06 0.011,-0.039 0.042,-0.06 0.077,-0.06 0.039,0 0.059,0.029 0.072,0.058 0.0169999,0.035 0.029,0.092 0.029,0.09499998 z"
           id="path1771" />
      </symbol>
      <symbol
         id="font_2_4">
        <path
           d="m 0.39800004,0.393 c 0,0.051 -0.068,0.058 -0.096,0.058 -0.046,0 -0.084,-0.022 -0.12100003,-0.074 -0.009,0.059 -0.052,0.074 -0.079,0.074 -0.023,0 -0.049,-0.01 -0.07,-0.053 C 0.013,0.361 0,0.299 0,0.299 0,0.291 0.005,0.289 0.014,0.289 c 0.011,0 0.012,0.001 0.018,0.024 0.01500001,0.059 0.034,0.11800003 0.06800001,0.11800003 0.026,0 0.026,-0.029 0.026,-0.041 0,-0.019 -0.004,-0.041 -0.008,-0.055 L 0.045,0.043 C 0.041,0.029 0.041,0.028 0.041,0.024 0.041,0.012 0.049,0 0.067,0 0.09,0 0.10000001,0.019 0.104,0.035 l 0.065,0.261 c 0.003,0.012 0.048,0.13500003 0.132,0.13500003 0.005,0 0.033,0 0.055,-0.014 -0.015,-0.004 -0.034,-0.019 -0.034,-0.044 0,-0.021 0.016,-0.029 0.031,-0.029 0.018,0 0.045,0.013 0.045,0.049 z"
           id="path1774" />
      </symbol>
      <symbol
         id="font_2_8">
        <path
           d="M 0.347,0.115 C 0.347,0.122 0.339,0.13 0.333,0.13 0.33,0.13 0.329,0.129 0.321,0.12 0.268,0.04800001 0.19299999,0.02 0.14199999,0.02 0.091,0.02 0.064,0.06500001 0.064,0.12400001 0.064,0.17000002 0.08800001,0.28 0.121,0.337 c 0.034,0.06 0.083,0.094 0.12600001,0.094 0.006,0 0.059,0 0.073,-0.048 -0.025,-0.001 -0.047,-0.02 -0.047,-0.044 0,-0.025 0.022,-0.03 0.031,-0.03 0.01,0 0.047,0.006 0.047,0.058 0,0.047 -0.042,0.084 -0.103,0.084 C 0.12600002,0.451 0,0.31 0,0.16200002 0,0.06 0.061,0 0.141,0 0.26500003,0 0.347,0.101 0.347,0.115 Z"
           id="path1777" />
      </symbol>
      <symbol
         id="font_2_e">
        <path
           d="m 0.24000001,0.15300001 c 0,0.009 -0.009,0.009 -0.013,0.009 -0.012,0 -0.013,-0.003 -0.017,-0.018 C 0.201,0.11 0.17500001,0.02 0.118,0.02 c -0.011,0 -0.023,0.005 -0.023,0.029 0,0.026 0.014,0.062 0.032,0.11100001 L 0.186,0.322 C 0.195,0.347 0.197,0.355 0.197,0.373 0.197,0.424 0.164,0.451 0.125,0.451 0.033,0.451 0,0.303 0,0.298 0,0.289 0.009,0.289 0.014,0.289 c 0.012,0 0.013,0.003 0.017,0.017 0.008,0.032 0.034,0.12500003 0.09200001,0.12500003 0.022,0 0.022,-0.019 0.022,-0.03 0,-0.026 -0.006,-0.043 -0.013,-0.061 L 0.052,0.123 C 0.044,0.101 0.044,0.088 0.044,0.079 0.044,0.021 0.08300001,0 0.11600001,0 c 0.092,0 0.124,0.14900002 0.124,0.15300001 M 0.26700003,0.62 c 0,0.028 -0.02,0.04 -0.04,0.04 -0.03,0 -0.059,-0.028 -0.059,-0.0569999 0,-0.027 0.021,-0.0400001 0.04,-0.0400001 0.03,0 0.059,0.0270001 0.059,0.057 z"
           id="path1780" />
      </symbol>
      <symbol
         id="font_2_5">
        <path
           d="m 0.25800003,0.15300001 c 0,0.009 -0.009,0.009 -0.013,0.009 -0.011,0 -0.012,-0.002 -0.017,-0.013 C 0.21600002,0.118 0.17700002,0.02 0.112,0.02 c -0.015,0 -0.02899999,0.007 -0.02899999,0.04 0,0.015 0.004,0.03800001 0.008,0.05300001 l 0.075,0.29899999 h 0.083 c 0.017,0 0.027,0 0.027,0.018 0,0.011 -0.007,0.011 -0.024,0.011 h -0.079 l 0.04,0.157 c 0.001,0.002 0.002,0.013 0.002,0.013 0,0.009 -0.007,0.024 -0.026,0.024 -0.025,0 -0.034,-0.0219999 -0.038,-0.037 L 0.112,0.441 H 0.027 C 0.009,0.441 0,0.441 0,0.422 0,0.412 0.008,0.412 0.024,0.412 H 0.10500001 L 0.033,0.12400001 C 0.02800001,0.104 0.02800001,0.092 0.02800001,0.088 0.02800001,0.04200001 0.05500001,0 0.11,0 0.208,0 0.25800003,0.14800002 0.25800003,0.15300001 Z"
           id="path1783" />
      </symbol>
      <symbol
         id="font_2_7">
        <path
           d="m 0.321,0.201 0.0970001,0.39 c 0.004,0.014 0.004,0.0160001 0.004,0.02 0,0.0150001 -0.012,0.0240001 -0.025,0.0240001 -0.028,0 -0.035,-0.0250001 -0.039,-0.0390001 l -0.073,-0.295 c -0.008,-0.031 -0.048,-0.087 -0.10400004,-0.087 -0.045,0 -0.054,0.045 -0.054,0.078 0,0.06 0.035,0.155 0.058,0.21900002 0.008,0.023 0.013,0.036 0.013,0.056 0,0.04 -0.024,0.078 -0.073,0.078 -0.091,0 -0.125,-0.14700003 -0.125,-0.15300002 0,-0.009 0.009,-0.009 0.014,-0.009 0.012,0 0.013,0.003 0.017,0.0169999 0.008,0.0300001 0.034,0.12500008 0.09200001,0.12500008 0.012,0 0.023,-0.005 0.023,-0.0290001 0,-0.0249999 -0.01,-0.051 -0.031,-0.10899994 -0.032,-0.0890001 -0.045,-0.14000006 -0.045,-0.17900002 0,-0.09 0.059,-0.11400004 0.10799999,-0.11400004 0.043,0 0.073,0.022 0.089,0.038 -0.01,-0.044 -0.022,-0.095 -0.057,-0.14600001 C 0.178,0.04100001 0.142,0.02 0.10700001,0.02 0.08,0.02 0.052,0.03300001 0.045,0.07000001 c 0.04800001,0.002 0.049,0.045 0.049,0.045 0,0.015 -0.01099999,0.029 -0.03099999,0.029 -0.007,0 -0.04700001,-0.002 -0.04700001,-0.06 C 0.016,0.03300001 0.05500001,0 0.10600001,0 0.21000001,0 0.29700003,0.10600001 0.321,0.201 Z"
           id="path1786" />
      </symbol>
      <symbol
         id="font_2_c">
        <path
           d="m 0.47300003,0.846 c 0,0.0390001 -0.039,0.0620001 -0.08,0.0620001 C 0.29700003,0.90800008 0.272,0.778 0.26500003,0.744 L 0.244,0.63500007 H 0.181 c -0.017,0 -0.026,0 -0.026,-0.019 C 0.155,0.606 0.163,0.606 0.179,0.606 H 0.238 L 0.167,0.23900001 c -0.012,-0.06 -0.014,-0.069 -0.03,-0.13 C 0.126,0.067 0.11400001,0.02 0.078,0.02 c -0.004,0 -0.029,0.001 -0.042,0.01900001 0.03700001,0.007 0.041,0.037 0.041,0.045 0,0.019 -0.014,0.029 -0.031,0.029 -0.023,0 -0.046,-0.018 -0.046,-0.051 C 0,0.023 0.037,0 0.078,0 0.159,0 0.206,0.12600002 0.237,0.287 l 0.062,0.319 h 0.078 c 0.017,0 0.027,0 0.027,0.018 0,0.0110001 -0.007,0.0110001 -0.024,0.0110001 H 0.304 l 0.032,0.15899993 c 0.009,0.044 0.02,0.094 0.057,0.094 0.003,0 0.028,0 0.043,-0.019 -0.034,-0.007 -0.04,-0.0339999 -0.04,-0.045 0,-0.019 0.014,-0.029 0.031,-0.029 0.023,0 0.046,0.018 0.046,0.051 z"
           id="path1789" />
      </symbol>
      <symbol
         id="font_2_9">
        <path
           d="m 0.76500007,0.67200008 c 0,0.0109999 -0.009,0.0109999 -0.013,0.0109999 -0.028,0 -0.058,-0.002 -0.0870001,-0.002 -0.0299999,0 -0.0609999,0.002 -0.0899999,0.002 -0.007,0 -0.018,0 -0.018,-0.0189999 0,-0.009 0.008,-0.01 0.0149999,-0.01 0.037,-9.9999e-4 0.0570001,-0.0120001 0.0570001,-0.042 0,-0.009 -0.003,-0.0210001 -0.004,-0.027 L 0.5130001,0.13700001 0.33100004,0.66700008 c -0.005,0.015 -0.006,0.0159999 -0.027,0.0159999 H 0.19000001 c -0.018,0 -0.027,0 -0.027,-0.0189999 0,-0.01 0.007,-0.01 0.026,-0.01 0.009,0 0.036,0 0.058,-0.006 L 0.11000002,0.1 C 0.09300001,0.033 0.04500001,0.031 0.015,0.029 0.01000001,0.029 0,0.028 0,0.01 0,0.001 0.008,0 0.012,0 c 0.02800001,0 0.05900001,0.002 0.08800001,0.002 0.03,0 0.061,-0.002 0.09,-0.002 0.006,0 0.017,0 0.017,0.019 0,0.009 -0.008,0.01 -0.014,0.01 -0.03,10e-4 -0.058,0.008 -0.058,0.042 0,0.009 0.004,0.02400001 0.004,0.02400001 L 0.27100004,0.62200006 0.47900004,0.015 c 0.004,-0.012 0.005,-0.015 0.017,-0.015 0.0109999,0 0.014,0.001 0.018,0.018 l 0.14099998,0.565 c 0.016,0.0620001 0.058,0.069 0.095,0.0710001 0.004,0 0.015,9.9999e-4 0.0150001,0.018 z"
           id="path1792" />
      </symbol>
      <symbol
         id="font_2_11">
        <path
           d="m 0.63100007,0.6930001 c 0,0.011 -0.009,0.011 -0.013,0.011 -0.0270001,0 -0.058,-0.002 -0.086,-0.002 -0.059,0 -0.088,0.002 -0.088,0.002 -0.007,0 -0.018,0 -0.018,-0.019 0,-0.009 0.008,-0.01 0.015,-0.01 0.037,-0.001 0.057,-0.012 0.057,-0.042 0,-0.009 -0.002,-0.021 -0.004,-0.027 l -0.089,-0.35800008 C 0.37600006,0.133 0.27600003,0.029 0.17500003,0.029 0.11800002,0.029 0.068,0.06900001 0.068,0.155 c 0,0.023 0.004,0.055 0.01000003,0.077 l 0.09999999,0.4010001 c 0.009,0.034 0.015,0.042 0.077,0.042 0.017,0 0.026,0 0.026,0.018 0,0.011 -0.009,0.011 -0.014,0.011 -0.035,0 -0.072,-0.002 -0.108,-0.002 -0.037,0 -0.07500002,0.002 -0.11100002,0.002 -0.008,0 -0.019,0 -0.019,-0.019 0,-0.01 0.007,-0.01 0.02600001,-0.01 0.02499998,0 0.05300001,0 0.05300001,-0.016 0,-0.006 0,-0.009 -0.002,-0.015 L 0.008,0.25000004 C 0,0.21800001 0,0.199 0,0.184 0,0.066 0.08100002,0 0.17100002,0 0.292,0 0.40200008,0.125 0.43100006,0.24200002 L 0.521,0.60400006 c 0.0160001,0.063 0.0580001,0.069 0.0950001,0.071 0.004,0 0.015,9.9998e-4 0.015,0.018 z"
           id="path1795" />
      </symbol>
      <use
         xlink:href="#font_2_10"
         transform="matrix(17.1865,0,0,-17.1865,20.717549,80.6839)"
         fill="#ffffff"
         id="use1798"
         style="fill:#f0f0f0;fill-opacity:1" />
      <use
         xlink:href="#font_2_d"
         transform="matrix(17.1865,0,0,-17.1865,31.029446,80.85577)"
         fill="#ffffff"
         id="use1800"
         style="fill:#f0f0f0;fill-opacity:1" />
      <use
         xlink:href="#font_2_a"
         transform="matrix(17.1865,0,0,-17.1865,40.310155,80.85577)"
         fill="#ffffff"
         id="use1802"
         style="fill:#f0f0f0;fill-opacity:1" />
      <use
         xlink:href="#font_2_b"
         transform="matrix(17.1865,0,0,-17.1865,54.609327,81.044818)"
         fill="#ffffff"
         id="use1804"
         style="fill:#f0f0f0;fill-opacity:1" />
      <use
         xlink:href="#font_2_3"
         transform="matrix(17.1865,0,0,-17.1865,65.23058,84.01808)"
         fill="#ffffff"
         id="use1806"
         style="fill:#f0f0f0;fill-opacity:1" />
      <use
         xlink:href="#font_2_a"
         transform="matrix(17.1865,0,0,-17.1865,74.68318,80.85577)"
         fill="#ffffff"
         id="use1808"
         style="fill:#f0f0f0;fill-opacity:1" />
      <use
         xlink:href="#font_2_1"
         transform="matrix(17.1865,0,0,-17.1865,81.88434,80.85577)"
         fill="#ffffff"
         id="use1810"
         style="fill:#f0f0f0;fill-opacity:1" />
      <use
         xlink:href="#font_2_f"
         transform="matrix(17.1865,0,0,-17.1865,97.163288,81.044818)"
         fill="#ffffff"
         id="use1812"
         style="fill:#f0f0f0;fill-opacity:1" />
      <use
         xlink:href="#font_2_2"
         transform="matrix(17.1865,0,0,-17.1865,107.26895,80.85577)"
         fill="#ffffff"
         id="use1814"
         style="fill:#f0f0f0;fill-opacity:1" />
      <use
         xlink:href="#font_2_6"
         transform="matrix(17.1865,0,0,-17.1865,115.39816,80.85577)"
         fill="#ffffff"
         id="use1816"
         style="fill:#f0f0f0;fill-opacity:1" />
      <use
         xlink:href="#font_2_4"
         transform="matrix(17.1865,0,0,-17.1865,124.42108,80.85577)"
         fill="#ffffff"
         id="use1818"
         style="fill:#f0f0f0;fill-opacity:1" />
      <use
         xlink:href="#font_2_8"
         transform="matrix(17.1865,0,0,-17.1865,131.12377,80.85577)"
         fill="#ffffff"
         id="use1820"
         style="fill:#f0f0f0;fill-opacity:1" />
      <use
         xlink:href="#font_2_a"
         transform="matrix(17.1865,0,0,-17.1865,138.06711,80.85577)"
         fill="#ffffff"
         id="use1822"
         style="fill:#f0f0f0;fill-opacity:1" />
      <use
         xlink:href="#font_2_f"
         transform="matrix(17.1865,0,0,-17.1865,151.09449,81.044818)"
         fill="#ffffff"
         id="use1824"
         style="fill:#f0f0f0;fill-opacity:1" />
      <use
         xlink:href="#font_2_2"
         transform="matrix(17.1865,0,0,-17.1865,161.20015,80.85577)"
         fill="#ffffff"
         id="use1826"
         style="fill:#f0f0f0;fill-opacity:1" />
      <use
         xlink:href="#font_2_8"
         transform="matrix(17.1865,0,0,-17.1865,168.93389,80.85577)"
         fill="#ffffff"
         id="use1828"
         style="fill:#f0f0f0;fill-opacity:1" />
      <use
         xlink:href="#font_2_e"
         transform="matrix(17.1865,0,0,-17.1865,176.20377,80.85577)"
         fill="#ffffff"
         id="use1830"
         style="fill:#f0f0f0;fill-opacity:1" />
      <use
         xlink:href="#font_2_a"
         transform="matrix(17.1865,0,0,-17.1865,181.89249,80.85577)"
         fill="#ffffff"
         id="use1832"
         style="fill:#f0f0f0;fill-opacity:1" />
      <use
         xlink:href="#font_2_5"
         transform="matrix(17.1865,0,0,-17.1865,189.21393,80.85577)"
         fill="#ffffff"
         id="use1834"
         style="fill:#f0f0f0;fill-opacity:1" />
      <use
         xlink:href="#font_2_7"
         transform="matrix(17.1865,0,0,-17.1865,194.67923,84.18994)"
         fill="#ffffff"
         id="use1836"
         style="fill:#f0f0f0;fill-opacity:1" />
      <use
         xlink:href="#font_2_2"
         transform="matrix(17.1865,0,0,-17.1865,209.3221,80.85577)"
         fill="#ffffff"
         id="use1838"
         style="fill:#f0f0f0;fill-opacity:1" />
      <use
         xlink:href="#font_2_c"
         transform="matrix(17.1865,0,0,-17.1865,215.5608,84.18994)"
         fill="#ffffff"
         id="use1840"
         style="fill:#f0f0f0;fill-opacity:1" />
      <use
         xlink:href="#font_2_9"
         transform="matrix(17.1865,0,0,-17.1865,228.33032,80.6839)"
         fill="#ffffff"
         id="use1842"
         style="fill:#f0f0f0;fill-opacity:1" />
      <use
         xlink:href="#font_2_f"
         transform="matrix(17.1865,0,0,-17.1865,240.9271,81.044818)"
         fill="#ffffff"
         id="use1844"
         style="fill:#f0f0f0;fill-opacity:1" />
      <use
         xlink:href="#font_2_11"
         transform="matrix(17.1865,0,0,-17.1865,252.57955,81.044818)"
         fill="#ffffff"
         id="use1846"
         style="fill:#f0f0f0;fill-opacity:1" />
      <use
         xlink:href="#font_2_10"
         transform="matrix(17.1865,0,0,-17.1865,264.62638,80.6839)"
         fill="#ffffff"
         id="use1848"
         style="fill:#f0f0f0;fill-opacity:1" />
    </g>
  </g>
</svg>
