<?xml version="1.0" encoding="UTF-8" standalone="no"?>
<svg
   version="1.1"
   width="291pt"
   height="93pt"
   viewBox="0 0 291 93"
   id="svg133"
   sodipodi:docname="logo.svg"
   inkscape:version="1.2.1 (9c6d41e410, 2022-07-14, custom)"
   xmlns:inkscape="http://www.inkscape.org/namespaces/inkscape"
   xmlns:sodipodi="http://sodipodi.sourceforge.net/DTD/sodipodi-0.dtd"
   xmlns:xlink="http://www.w3.org/1999/xlink"
   xmlns="http://www.w3.org/2000/svg"
   xmlns:svg="http://www.w3.org/2000/svg">
  <defs
     id="defs137" />
  <sodipodi:namedview
     id="namedview135"
     pagecolor="#ffffff"
     bordercolor="#000000"
     borderopacity="0.25"
     inkscape:showpageshadow="2"
     inkscape:pageopacity="0.0"
     inkscape:pagecheckerboard="0"
     inkscape:deskcolor="#d1d1d1"
     inkscape:document-units="pt"
     showgrid="false"
     inkscape:zoom="1.4077366"
     inkscape:cx="179.72113"
     inkscape:cy="82.046602"
     inkscape:window-width="1346"
     inkscape:window-height="721"
     inkscape:window-x="9"
     inkscape:window-y="36"
     inkscape:window-maximized="1"
     inkscape:current-layer="g129" />
  <g
     enable-background="new"
     id="g131">
    <clipPath
       id="cp0">
      <path
         transform="matrix(.1,0,0,-.1,-151,454)"
         d="M 0 7.0625 L 5950 7.0625 L 5950 8412.933 L 0 8412.933 Z "
         id="path2" />
    </clipPath>
    <g
       clip-path="url(#cp0)"
       id="g129">
      <path
         d="M 1526.13 3649.94 L 1526.13 4492.54 C 1526.13 4508.17 1538.8 4520.84 1554.43 4520.84 L 4378.75 4520.84 C 4394.38 4520.84 4407.05 4508.17 4407.05 4492.54 L 4407.05 3649.94 C 4407.05 3634.31 4394.38 3621.64 4378.75 3621.64 L 1554.43 3621.64 C 1538.8 3621.64 1526.13 3634.31 1526.13 3649.94 "
         fill="#ffffff"
         id="path7"
         transform="matrix(.1,0,0,-.1,-151,454)"
         style="fill:none;stroke:#1a1a1a;stroke-opacity:1;stroke-width:9.99999998;stroke-dasharray:none" />
      <symbol
         id="font_1_2">
        <path
           d="M .62700006 .356 C .62700006 .561 .48000003 .71500006 .314 .71500006 C .14400001 .71500006 0 .559 0 .356 C 0 .15300001 .146 0 .31300003 0 C .48400004 0 .62700006 .156 .62700006 .356 M .551 .36900003 C .551 .128 .42400003 .018000002 .314 .018000002 C .2 .018000002 .076000008 .132 .076000008 .36900003 C .076000008 .605 .21200001 .697 .31300003 .697 C .41900004 .697 .551 .602 .551 .36900003 Z "
           id="path9" />
      </symbol>
      <symbol
         id="font_1_3">
        <path
           d="M .418 .19700001 C .418 .24900002 .39900003 .289 .388 .307 C .34600003 .37100003 .301 .38300003 .25300003 .395 C .24600002 .39800004 .24400002 .39800004 .18800001 .41200004 C .134 .42600004 .111 .43300004 .085999999 .46000005 C .058 .49100004 .048 .523 .048 .555 C .048 .62 .10000001 .691 .185 .691 C .291 .691 .35700003 .616 .372 .49100004 C .37500004 .47300003 .37600003 .47200004 .38300003 .47200004 C .39200003 .47200004 .39200003 .47500003 .39200003 .492 L .39200003 .695 C .39200003 .713 .391 .714 .38500003 .714 C .379 .714 .377 .71 .37300004 .70100006 L .34300003 .635 C .305 .69 .24700001 .71500006 .184 .71500006 C .082 .71500006 0 .634 0 .532 C 0 .501 .0069999995 .45700003 .041 .41500003 C .078 .36900003 .113000009 .36100004 .193 .34 C .22300002 .33200003 .273 .319 .28300003 .31500004 C .34 .291 .37 .231 .37 .17500001 C .37 .10300001 .319 .026 .23200003 .026 C .125 .026 .024999999 .086 .018 .22600001 C .016999998 .24200002 .015999999 .24300002 .009 .24300002 C .0009999983 .24300002 0 .24200002 0 .22200002 L 0 .020000002 C 0 .0020000004 .0009999983 .0010000002 .0069999995 .0010000002 C .013999999 .0010000002 .015999999 .006 .030000002 .037 C .031000004 .04 .031000004 .042000005 .049999998 .080000009 C .10000001 .014 .184 0 .23200003 0 C .34100003 0 .418 .091000009 .418 .19700001 Z "
           id="path12" />
      </symbol>
      <symbol
         id="font_1_1">
        <path
           d="M .59000006 .657 L .59000006 .683 C .56700006 .68100008 .52500006 .68100008 .5 .68100008 C .47500003 .68100008 .43300004 .68100008 .41000004 .683 L .41000004 .657 C .49 .657 .49 .61 .49 .58500006 L .49 .12200001 L .15400002 .671 C .14700002 .68200007 .14600002 .683 .127 .683 L 0 .683 L 0 .657 L .018999998 .657 C .059000005 .657 .07700001 .652 .08000001 .651 L .08000001 .098000008 C .08000001 .07300001 .08000001 .026 0 .026 L 0 0 C .022999999 .002 .065 .002 .09 .002 C .11500001 .002 .157 .002 .18 0 L .18 .026 C .10000001 .026 .10000001 .07300001 .10000001 .098000008 L .10000001 .637 C .10700001 .63100007 .10700001 .629 .11400001 .619 L .485 .012 C .49200005 0 .495 0 .5 0 C .51000007 0 .51000007 .003 .51000007 .022000002 L .51000007 .58500006 C .51000007 .61 .51000007 .657 .59000006 .657 Z "
           id="path15" />
      </symbol>
      <use
         xlink:href="#font_1_2"
         transform="matrix(63.6538,0,0,-63.6538,69.14208,57.836454)"
         id="use18" />
      <use
         xlink:href="#font_1_3"
         transform="matrix(63.6538,0,0,-63.6538,114.97715,57.836454)"
         id="use20" />
      <use
         xlink:href="#font_1_3"
         transform="matrix(63.6538,0,0,-63.6538,147.50684,57.836454)"
         id="use22" />
      <use
         xlink:href="#font_1_1"
         transform="matrix(63.6538,0,0,-63.6538,180.3548,56.817995)"
         id="use24" />
      <symbol
         id="font_2_10">
        <path
           d="M .586 .47400005 L .616 .65500006 C .61800006 .665 .61800006 .66700008 .61800006 .66700008 C .61800006 .67800006 .611 .67800006 .594 .67800006 L .09199999 .67800006 C .070999998 .67800006 .069000009 .67800006 .063999999 .66200008 L .0029999912 .47800002 C .002000004 .47500003 0 .46800003 0 .46500004 C 0 .455 .010000005 .455 .012999997 .455 C .023000002 .455 .024000004 .45600004 .032000007 .476 C .082 .625 .10400002 .64900007 .24000003 .64900007 L .274 .64900007 C .297 .64900007 .297 .64500007 .297 .638 C .297 .632 .29400004 .619 .29299999 .61700007 L .158 .076000008 C .149 .039 .14100002 .029000001 .055999996 .029000001 L .044 .029000001 C .025999994 .029000001 .017000005 .029000001 .017000005 .010000001 C .017000005 0 .025999994 0 .033999996 0 L .17600002 .002 L .32100005 0 C .33099998 0 .342 0 .342 .018000002 C .342 .029000001 .33499999 .029000001 .31800003 .029000001 L .306 .029000001 C .28900004 .029000001 .273 .030000002 .25700004 .032 C .23800002 .034 .228 .035 .228 .051000004 C .228 .056 .228 .058000003 .23 .068 L .366 .61200007 C .37300004 .64000007 .379 .64500007 .38700003 .647 C .394 .64900007 .42299999 .64900007 .44099999 .64900007 C .528 .64900007 .569 .643 .569 .574 C .569 .544 .561 .49300004 .558 .47700004 L .556 .46600003 C .556 .455 .566 .455 .57 .455 C .582 .455 .583 .45800004 .586 .47400005 Z "
           id="path26" />
      </symbol>
      <symbol
         id="font_2_d">
        <path
           d="M .449 .15300001 C .449 .16200002 .44 .16200002 .43600006 .16200002 C .42400003 .16200002 .423 .15900001 .41900004 .14400001 C .41000004 .11 .38300003 .020000002 .32700003 .020000002 C .312 .020000002 .30400003 .027000003 .30400003 .050000006 C .30400003 .074 .31500004 .105000007 .323 .125 C .349 .19800002 .38300003 .291 .38300003 .349 C .38300003 .402 .36 .451 .28300003 .451 C .21900001 .451 .17700002 .414 .149 .38 L .224 .681 C .22600001 .68700006 .22700003 .69100007 .22700003 .694 C .22700003 .703 .22 .704 .20400003 .703 L .104 .694 C .09 .693 .081 .69200006 .081 .674 C .081 .66400006 .089 .66400006 .103 .66400006 C .15300001 .66400006 .15300001 .65500006 .15300001 .64500007 C .15300001 .64100006 .15100001 .63100007 .15 .62700006 L .0040000008 .043 C .001000002 .030000002 0 .028 0 .025000003 C 0 .012000001 .009000003 0 .026 0 C .054000006 0 .060000004 .026 .062000008 .033000005 L .12400001 .28100003 C .13000001 .304 .18400002 .43100003 .28 .43100003 C .326 .43100003 .326 .381 .326 .364 C .326 .30200003 .282 .18200001 .26500003 .133 C .256 .108 .252 .099 .252 .078 C .252 .030000002 .28300003 0 .32400004 0 C .41700004 0 .449 .14900002 .449 .15300001 Z "
           id="path29" />
      </symbol>
      <symbol
         id="font_2_a">
        <path
           d="M .343 .115 C .343 .122 .33500005 .13000001 .329 .13000001 C .32600004 .13000001 .325 .12900001 .31700004 .120000008 C .264 .048000006 .189 .020000002 .138 .020000002 C .072 .020000002 .06299999 .099 .06299999 .13100001 C .06299999 .17500001 .07000001 .20300001 .08 .24200002 L .116 .24200002 C .15100001 .24200002 .339 .24200002 .339 .368 C .339 .41300003 .302 .451 .24300002 .451 C .13900002 .451 0 .349 0 .17300001 C 0 .072000008 .052 0 .13700001 0 C .26100005 0 .343 .101 .343 .115 M .305 .36900003 C .305 .262 .13900002 .262 .10700001 .262 L .085999999 .262 C .126 .421 .22400002 .43100003 .242 .43100003 C .282 .43100003 .305 .403 .305 .36900003 Z "
           id="path32" />
      </symbol>
      <symbol
         id="font_2_b">
        <path
           d="M .62700006 .467 C .62700006 .61200007 .542 .7250001 .40399999 .7250001 C .203 .7250001 0 .48700003 0 .256 C 0 .112 .085999999 0 .22399999 0 C .422 0 .62700006 .23200001 .62700006 .467 M .549 .50600007 C .549 .31100003 .41000004 .023000002 .22900002 .023000002 C .14 .023000002 .082 .105000007 .082 .22700002 C .082 .28800003 .105000007 .45200003 .186 .56700006 C .25300003 .6610001 .334 .70300009 .398 .70300009 C .481 .70300009 .549 .6370001 .549 .50600007 Z "
           id="path35" />
      </symbol>
      <symbol
         id="font_2_3">
        <path
           d="M .485 .483 C .485 .57000008 .439 .635 .37 .635 C .307 .635 .25500003 .571 .25 .564 C .24100003 .61300006 .20500002 .635 .171 .635 C .148 .635 .12200001 .625 .101 .582 C .082 .545 .069000009 .483 .069000009 .483 C .069000009 .47500003 .07400001 .47300003 .083000008 .47300003 C .094000007 .47300003 .095000009 .474 .101 .497 C .11600001 .556 .135 .615 .16900002 .615 C .19500001 .615 .19500001 .586 .19500001 .574 C .19500001 .55500009 .19100002 .53400006 .187 .51900008 L .07400001 .066 C .06600001 .034999998 .059000009 .029 .021 .029 C .01 .029 0 .029 0 .00999999 C 0 .002000004 .007000001 0 .012 0 C .038000004 0 .067 .002000004 .094000007 .002000004 C .12400001 .002000004 .156 0 .18500002 0 C .19100002 0 .20300001 0 .20300001 .017999992 C .20300001 .029 .19700001 .029 .179 .029 C .157 .029 .13100001 .029 .13100001 .044 C .13100001 .053000004 .13200002 .060000004 .179 .244 C .18900001 .21900001 .21400002 .184 .261 .184 C .37 .184 .485 .338 .485 .483 M .36800004 .30200003 C .333 .23200001 .29200004 .20400001 .261 .20400001 C .19900002 .20400001 .19300002 .29900003 .19300002 .29900003 C .19300002 .30200003 .194 .305 .19600001 .31300003 L .243 .50200006 C .25100003 .533 .312 .615 .367 .615 C .40300004 .615 .42200003 .578 .42200003 .52500006 C .42200003 .469 .388 .344 .36800004 .30200003 Z "
           id="path38" />
      </symbol>
      <symbol
         id="font_2_1">
        <path
           d="M .49 .15300001 C .49 .16200002 .481 .16200002 .477 .16200002 C .46500004 .16200002 .46400006 .15900001 .46000005 .14400001 C .45100004 .11 .42400003 .020000002 .36800004 .020000002 C .35300002 .020000002 .34500004 .027000003 .34500004 .050000006 C .34500004 .074 .356 .105000007 .36400003 .125 C .39000003 .19800002 .42400003 .291 .42400003 .349 C .42400003 .402 .40100003 .451 .324 .451 C .26200003 .451 .215 .41500003 .18200001 .37 C .17900002 .41500003 .148 .451 .102 .451 C .078999999 .451 .053000004 .441 .031999999 .398 C .012999997 .361 0 .299 0 .299 C 0 .291 .0050000029 .289 .013999999 .289 C .024999999 .289 .026 .29 .031999999 .313 C .047000007 .372 .066 .43100003 .10000001 .43100003 C .126 .43100003 .126 .402 .126 .39000003 C .126 .37100003 .12200001 .349 .118 .335 L .045 .043 C .041 .029000003 .041 .028 .041 .024 C .041 .012000001 .048999996 0 .067 0 C .09 0 .10000001 .018000002 .104 .035 L .165 .28100003 C .171 .303 .22500003 .43100003 .321 .43100003 C .367 .43100003 .367 .381 .367 .364 C .367 .30200003 .323 .18200001 .30600003 .133 C .29700003 .108 .293 .099 .293 .078 C .293 .030000002 .324 0 .365 0 C .458 0 .49 .14900002 .49 .15300001 Z "
           id="path41" />
      </symbol>
      <symbol
         id="font_2_f">
        <path
           d="M .45400004 .25800003 C .45400004 .337 .41400004 .38200004 .36400003 .398 L .26700003 .42700003 C .23500002 .43600003 .18800003 .45000003 .18800003 .52500006 C .18800003 .61100009 .26700003 .6980001 .351 .6980001 C .47100006 .6980001 .47100006 .586 .47100006 .55500009 C .47100006 .54200008 .47100006 .52500006 .46700005 .49600003 C .465 .49 .465 .48700003 .465 .48700003 C .465 .47700004 .47200004 .47700004 .479 .47700004 C .49000005 .47700004 .492 .47800002 .49600003 .49400003 L .548 .7020001 C .549 .70500007 .551 .71300008 .551 .7160001 C .551 .7250001 .541 .7250001 .541 .7250001 C .538 .7250001 .535 .7250001 .527 .71400007 L .48200003 .65400007 C .44500003 .7250001 .37100003 .7250001 .35300002 .7250001 C .23600003 .7250001 .12600002 .609 .12600002 .48900003 C .12600002 .467 .12799999 .42600004 .164 .38700003 C .185 .36400003 .20300001 .35900004 .272 .33900003 L .33300004 .321 C .37500004 .307 .39300005 .268 .39300005 .223 C .39300005 .13200002 .31500004 .029000003 .224 .029000003 C .14700002 .029000003 .076 .068 .076 .17 C .076 .18 .078 .207 .084 .231 L .085 .23900001 C .085 .24800001 .077 .24800001 .072000008 .24800001 C .060999998 .24800001 .059000009 .24700001 .055 .231 L .0029999987 .023000002 C .0019999967 .020000002 0 .012000001 0 .0090000019 C 0 0 .009999998 0 .009999998 0 C .013999999 0 .015000001 .0010000002 .024999999 .013000001 L .07 .073 C .09700001 .032 .14200002 0 .22100002 0 C .34200005 0 .45400004 .128 .45400004 .25800003 Z "
           id="path44" />
      </symbol>
      <symbol
         id="font_2_2">
        <path
           d="M .387 .289 C .387 .393 .323 .451 .248 .451 C .12600002 .451 0 .31 0 .16200002 C 0 .054000006 .066999997 0 .139 0 C .261 0 .387 .143 .387 .289 M .323 .327 C .323 .284 .299 .17100002 .267 .116000007 C .22600001 .045 .17500001 .020000002 .13999999 .020000002 C .098 .020000002 .064 .056000007 .064 .124000009 C .064 .17000002 .08800001 .28 .121 .337 C .15799999 .40100003 .20899999 .43100003 .24599999 .43100003 C .297 .43100003 .323 .384 .323 .327 Z "
           id="path47" />
      </symbol>
      <symbol
         id="font_2_6">
        <path
           d="M .46500004 .15300001 C .46500004 .16200002 .45600004 .16200002 .45200003 .16200002 C .44 .16200002 .439 .16100002 .43300004 .13800001 C .41300003 .055000005 .39400003 .020000002 .36600004 .020000002 C .344 .020000002 .33900003 .041 .33900003 .060000004 C .33900003 .075 .34300003 .098000008 .347 .113000009 L .41800005 .397 C .422 .411 .422 .41300003 .422 .417 C .422 .432 .41000004 .441 .397 .441 C .36900003 .441 .36100004 .416 .358 .402 L .286 .113000009 C .286 .113000009 .286 .102000009 .284 .097 C .264 .055000005 .227 .020000002 .181 .020000002 C .136 .020000002 .127 .065000008 .127 .098000008 C .127 .158 .162 .25300003 .185 .317 C .19300002 .34 .19800002 .35300002 .19800002 .373 C .19800002 .41300003 .174 .451 .125 .451 C .034 .451 0 .304 0 .298 C 0 .289 .009000003 .289 .013999999 .289 C .026 .289 .027000003 .292 .031000004 .306 C .039000006 .336 .065 .43100003 .12300001 .43100003 C .135 .43100003 .14600002 .426 .14600002 .402 C .14600002 .377 .136 .351 .11500001 .293 C .083000008 .20400001 .07000001 .15300001 .07000001 .114 C .07000001 .024 .12900001 0 .178 0 C .22 0 .25500003 .020000002 .287 .060000004 C .298 .021000002 .32900004 0 .36400003 0 C .40300004 0 .42300005 .029000003 .43600006 .058000003 C .453 .093 .46500004 .15 .46500004 .15300001 Z "
           id="path50" />
      </symbol>
      <symbol
         id="font_2_4">
        <path
           d="M .39800004 .393 C .39800004 .444 .33 .451 .30200003 .451 C .256 .451 .21800003 .42900003 .181 .377 C .17200002 .43600003 .12900001 .451 .102 .451 C .078999999 .451 .053000004 .441 .031999999 .398 C .012999997 .361 0 .299 0 .299 C 0 .291 .0050000029 .289 .013999999 .289 C .024999999 .289 .026 .29 .031999999 .313 C .047000007 .372 .066 .43100003 .10000001 .43100003 C .126 .43100003 .126 .402 .126 .39000003 C .126 .37100003 .12200001 .349 .118 .335 L .045 .043 C .041 .029000003 .041 .028 .041 .024 C .041 .012000001 .048999996 0 .067 0 C .09 0 .10000001 .019000002 .104 .035 L .169 .296 C .17200002 .308 .21700001 .43100003 .301 .43100003 C .30600003 .43100003 .33400003 .43100003 .356 .417 C .34100003 .41300003 .32200004 .398 .32200004 .373 C .32200004 .352 .33800004 .344 .35300002 .344 C .37100003 .344 .39800004 .357 .39800004 .393 Z "
           id="path53" />
      </symbol>
      <symbol
         id="font_2_8">
        <path
           d="M .347 .115 C .347 .122 .33900003 .13000001 .333 .13000001 C .33 .13000001 .329 .12900001 .321 .120000008 C .268 .048000006 .19299999 .020000002 .14199999 .020000002 C .091 .020000002 .064 .065000008 .064 .124000009 C .064 .17000002 .08800001 .28 .121 .337 C .155 .397 .204 .43100003 .24700001 .43100003 C .253 .43100003 .306 .43100003 .32 .38300003 C .29500003 .382 .273 .363 .273 .33900003 C .273 .314 .29500003 .30900003 .30400003 .30900003 C .314 .30900003 .351 .315 .351 .367 C .351 .414 .30900003 .451 .248 .451 C .12600002 .451 0 .31 0 .16200002 C 0 .060000004 .060999998 0 .141 0 C .26500003 0 .347 .101 .347 .115 Z "
           id="path56" />
      </symbol>
      <symbol
         id="font_2_e">
        <path
           d="M .24000001 .15300001 C .24000001 .16200002 .231 .16200002 .227 .16200002 C .215 .16200002 .21400002 .15900001 .21000001 .14400001 C .201 .11 .17500001 .020000002 .118 .020000002 C .10700001 .020000002 .095 .025000003 .095 .049000004 C .095 .075 .109 .111 .127 .16000001 L .18600002 .322 C .19500003 .347 .197 .35500003 .197 .373 C .197 .42400003 .164 .451 .125 .451 C .033 .451 0 .303 0 .298 C 0 .289 .009000003 .289 .013999999 .289 C .026 .289 .027000003 .292 .031000004 .306 C .039000006 .338 .065 .43100003 .12300001 .43100003 C .14500001 .43100003 .14500001 .412 .14500001 .40100003 C .14500001 .375 .13900002 .358 .132 .34 L .052 .123 C .044 .101 .044 .088 .044 .079 C .044 .021000002 .083000008 0 .11600001 0 C .208 0 .24000001 .14900002 .24000001 .15300001 M .26700003 .62 C .26700003 .648 .24700001 .66 .227 .66 C .197 .66 .16800002 .632 .16800002 .60300007 C .16800002 .57600006 .18900001 .563 .208 .563 C .238 .563 .26700003 .59000006 .26700003 .62 Z "
           id="path59" />
      </symbol>
      <symbol
         id="font_2_5">
        <path
           d="M .25800003 .15300001 C .25800003 .16200002 .24900002 .16200002 .245 .16200002 C .234 .16200002 .23300001 .16000001 .22800002 .14900002 C .21600002 .118 .17700002 .020000002 .112 .020000002 C .097 .020000002 .083000008 .027000003 .083000008 .060000004 C .083000008 .075 .087 .098000008 .091000009 .113000009 L .16600001 .412 L .24900002 .412 C .266 .412 .27600003 .412 .27600003 .43 C .27600003 .441 .26900003 .441 .252 .441 L .17300001 .441 L .213 .598 C .21400002 .6 .215 .611 .215 .611 C .215 .62 .208 .635 .18900001 .635 C .164 .635 .155 .61300006 .15100001 .598 L .112 .441 L .027000003 .441 C .009000003 .441 0 .441 0 .42200003 C 0 .412 .008000001 .412 .024000004 .412 L .105000007 .412 L .033 .124000009 C .028000005 .104 .028000005 .092 .028000005 .088 C .028000005 .042000005 .055000009 0 .11 0 C .208 0 .25800003 .14800002 .25800003 .15300001 Z "
           id="path62" />
      </symbol>
      <symbol
         id="font_2_7">
        <path
           d="M .321 .201 L .41800005 .591 C .422 .605 .422 .60700008 .422 .611 C .422 .62600007 .41000004 .63500007 .397 .63500007 C .36900003 .63500007 .36200003 .61 .358 .596 L .28500004 .301 C .277 .27 .23700002 .21400002 .181 .21400002 C .136 .21400002 .127 .259 .127 .29200004 C .127 .352 .162 .44700004 .185 .51100006 C .19300002 .53400006 .19800002 .54700008 .19800002 .56700006 C .19800002 .60700008 .174 .64500007 .125 .64500007 C .034 .64500007 0 .49800004 0 .49200005 C 0 .48300005 .009000003 .48300005 .013999999 .48300005 C .026 .48300005 .027000003 .486 .031000004 .5 C .039000006 .53000006 .065 .62500008 .12300001 .62500008 C .135 .62500008 .14600002 .62 .14600002 .596 C .14600002 .57100006 .136 .545 .11500001 .48700006 C .083000008 .398 .07000001 .347 .07000001 .30800004 C .07000001 .21800001 .12900001 .194 .178 .194 C .22100002 .194 .25100003 .216 .26700003 .23200001 C .257 .18800001 .245 .13700001 .21000001 .086 C .178 .04100001 .142 .019999996 .10700001 .019999996 C .08 .019999996 .052 .033000009 .045 .07000001 C .09300001 .07200001 .094 .11500001 .094 .11500001 C .094 .13000001 .083000008 .14400001 .06300001 .14400001 C .05600001 .14400001 .016000003 .142 .016000003 .08400001 C .016000003 .033000009 .055000009 0 .106000009 0 C .21000001 0 .29700003 .106000009 .321 .201 Z "
           id="path65" />
      </symbol>
      <symbol
         id="font_2_c">
        <path
           d="M .47300003 .846 C .47300003 .88500007 .43400003 .90800008 .39300005 .90800008 C .29700003 .90800008 .272 .778 .26500003 .744 L .244 .63500007 L .18100001 .63500007 C .164 .63500007 .155 .63500007 .155 .61600008 C .155 .606 .163 .606 .179 .606 L .238 .606 L .167 .23900001 C .155 .179 .153 .17000002 .13700001 .109000008 C .126 .067 .11400001 .019999996 .078 .019999996 C .074 .019999996 .049000004 .020999998 .036000004 .039000006 C .07300001 .046000005 .077 .076000008 .077 .08400001 C .077 .10300001 .063 .113000009 .046000005 .113000009 C .023 .113000009 0 .095000009 0 .062000008 C 0 .023000002 .037 0 .078 0 C .159 0 .206 .12600002 .237 .287 L .29900003 .606 L .37700004 .606 C .39400003 .606 .404 .606 .404 .624 C .404 .63500007 .397 .63500007 .38000003 .63500007 L .30400003 .63500007 L .33600004 .794 C .34500004 .838 .35600005 .888 .39300005 .888 C .39600004 .888 .42100004 .888 .43600003 .869 C .40200005 .86200007 .39600004 .83500006 .39600004 .824 C .39600004 .805 .41000004 .795 .42700003 .795 C .45000003 .795 .47300003 .813 .47300003 .846 Z "
           id="path68" />
      </symbol>
      <symbol
         id="font_2_9">
        <path
           d="M .76500007 .67200008 C .76500007 .683 .75600007 .683 .75200006 .683 C .72400006 .683 .69400009 .68100008 .665 .68100008 C .63500007 .68100008 .60400006 .683 .57500007 .683 C .568 .683 .55700007 .683 .55700007 .66400006 C .55700007 .65500006 .56500008 .65400007 .572 .65400007 C .609 .65300008 .62900009 .642 .62900009 .61200007 C .62900009 .60300007 .62600007 .591 .62500008 .58500006 L .5130001 .13700001 L .33100004 .66700008 C .32600004 .68200007 .32500006 .683 .30400003 .683 L .19000001 .683 C .172 .683 .16300002 .683 .16300002 .66400006 C .16300002 .65400007 .17000002 .65400007 .18900003 .65400007 C .198 .65400007 .22500001 .65400007 .24700003 .648 L .110000018 .1 C .09300001 .033 .04500001 .031000002 .015000001 .029000001 C .010000005 .029000001 0 .028 0 .010000001 C 0 .001 .008000001 0 .012000002 0 C .040000008 0 .07100001 .002 .10000001 .002 C .13000001 .002 .16100002 0 .19000001 0 C .19600003 0 .207 0 .207 .019000002 C .207 .028 .19900002 .029000001 .193 .029000001 C .16300002 .030000002 .135 .037 .135 .071 C .135 .080000009 .13900002 .095000009 .13900002 .095000009 L .27100004 .62200006 L .47900004 .015000001 C .48300005 .003 .48400004 0 .49600006 0 C .507 0 .51000007 .001 .51400008 .018000002 L .65500006 .583 C .67100009 .64500007 .71300008 .652 .75000008 .65400007 C .75400009 .65400007 .76500007 .65500006 .76500007 .67200008 Z "
           id="path71" />
      </symbol>
      <symbol
         id="font_2_11">
        <path
           d="M .63100007 .6930001 C .63100007 .70400008 .62200006 .70400008 .61800006 .70400008 C .591 .70400008 .56000009 .7020001 .53200009 .7020001 C .47300006 .7020001 .44400008 .70400008 .44400008 .70400008 C .43700005 .70400008 .42600007 .70400008 .42600007 .68500009 C .42600007 .67600008 .43400003 .6750001 .44100005 .6750001 C .47800005 .6740001 .49800004 .66300007 .49800004 .6330001 C .49800004 .6240001 .49600006 .61200007 .49400003 .60600009 L .40500004 .24800001 C .37600006 .133 .27600003 .029000003 .17500003 .029000003 C .118000019 .029000003 .068 .069000009 .068 .155 C .068 .178 .07200001 .21000001 .078000027 .23200001 L .17800002 .6330001 C .18700002 .66700008 .193 .6750001 .255 .6750001 C .272 .6750001 .28100003 .6750001 .28100003 .6930001 C .28100003 .70400008 .272 .70400008 .26700003 .70400008 C .23200001 .70400008 .19500001 .7020001 .15900003 .7020001 C .12200002 .7020001 .08400001 .70400008 .048000009 .70400008 C .040000008 .70400008 .029000014 .70400008 .029000014 .68500009 C .029000014 .6750001 .036000015 .6750001 .055000023 .6750001 C .08 .6750001 .108000028 .6750001 .108000028 .65900006 C .108000028 .65300008 .108000028 .65000006 .10600002 .64400008 L .008000001 .25000004 C 0 .21800001 0 .199 0 .184 C 0 .066 .081000018 0 .17100002 0 C .292 0 .40200008 .125 .43100006 .24200002 L .521 .60400006 C .53700008 .66700008 .57900008 .67300006 .61600008 .6750001 C .62000009 .6750001 .63100007 .67600008 .63100007 .6930001 Z "
           id="path74" />
      </symbol>
      <use
         xlink:href="#font_2_10"
         transform="matrix(17.1865,0,0,-17.1865,19.65755,80.00391)"
         id="use77" />
      <use
         xlink:href="#font_2_d"
         transform="matrix(17.1865,0,0,-17.1865,29.969449,80.17577)"
         id="use79" />
      <use
         xlink:href="#font_2_a"
         transform="matrix(17.1865,0,0,-17.1865,39.250158,80.17577)"
         id="use81" />
      <use
         xlink:href="#font_2_b"
         transform="matrix(17.1865,0,0,-17.1865,53.549329,80.36482)"
         id="use83" />
      <use
         xlink:href="#font_2_3"
         transform="matrix(17.1865,0,0,-17.1865,64.170589,83.33809)"
         id="use85" />
      <use
         xlink:href="#font_2_a"
         transform="matrix(17.1865,0,0,-17.1865,73.623188,80.17577)"
         id="use87" />
      <use
         xlink:href="#font_2_1"
         transform="matrix(17.1865,0,0,-17.1865,80.82434,80.17577)"
         id="use89" />
      <use
         xlink:href="#font_2_f"
         transform="matrix(17.1865,0,0,-17.1865,96.10329,80.36482)"
         id="use91" />
      <use
         xlink:href="#font_2_2"
         transform="matrix(17.1865,0,0,-17.1865,106.208957,80.17577)"
         id="use93" />
      <use
         xlink:href="#font_2_6"
         transform="matrix(17.1865,0,0,-17.1865,114.338169,80.17577)"
         id="use95" />
      <use
         xlink:href="#font_2_4"
         transform="matrix(17.1865,0,0,-17.1865,123.361087,80.17577)"
         id="use97" />
      <use
         xlink:href="#font_2_8"
         transform="matrix(17.1865,0,0,-17.1865,130.06377,80.17577)"
         id="use99" />
      <use
         xlink:href="#font_2_a"
         transform="matrix(17.1865,0,0,-17.1865,137.00711,80.17577)"
         id="use101" />
      <use
         xlink:href="#font_2_f"
         transform="matrix(17.1865,0,0,-17.1865,150.03449,80.36482)"
         id="use103" />
      <use
         xlink:href="#font_2_2"
         transform="matrix(17.1865,0,0,-17.1865,160.14015,80.17577)"
         id="use105" />
      <use
         xlink:href="#font_2_8"
         transform="matrix(17.1865,0,0,-17.1865,167.87389,80.17577)"
         id="use107" />
      <use
         xlink:href="#font_2_e"
         transform="matrix(17.1865,0,0,-17.1865,175.14377,80.17577)"
         id="use109" />
      <use
         xlink:href="#font_2_a"
         transform="matrix(17.1865,0,0,-17.1865,180.83249,80.17577)"
         id="use111" />
      <use
         xlink:href="#font_2_5"
         transform="matrix(17.1865,0,0,-17.1865,188.15393,80.17577)"
         id="use113" />
      <use
         xlink:href="#font_2_7"
         transform="matrix(17.1865,0,0,-17.1865,193.61923,83.50995)"
         id="use115" />
      <use
         xlink:href="#font_2_2"
         transform="matrix(17.1865,0,0,-17.1865,208.2621,80.17577)"
         id="use117" />
      <use
         xlink:href="#font_2_c"
         transform="matrix(17.1865,0,0,-17.1865,214.50081,83.50995)"
         id="use119" />
      <use
         xlink:href="#font_2_9"
         transform="matrix(17.1865,0,0,-17.1865,227.27033,80.00391)"
         id="use121" />
      <use
         xlink:href="#font_2_f"
         transform="matrix(17.1865,0,0,-17.1865,239.8671,80.36482)"
         id="use123" />
      <use
         xlink:href="#font_2_11"
         transform="matrix(17.1865,0,0,-17.1865,251.51955,80.36482)"
         id="use125" />
      <use
         xlink:href="#font_2_10"
         transform="matrix(17.1865,0,0,-17.1865,263.56639,80.00391)"
         id="use127" />
    </g>
  </g>
</svg>
